<?xml version="1.0" encoding="UTF-8" standalone="no"?>
<svg
   xmlns:dc="http://purl.org/dc/elements/1.1/"
   xmlns:cc="http://creativecommons.org/ns#"
   xmlns:rdf="http://www.w3.org/1999/02/22-rdf-syntax-ns#"
   xmlns:svg="http://www.w3.org/2000/svg"
   xmlns="http://www.w3.org/2000/svg"
   xmlns:sodipodi="http://sodipodi.sourceforge.net/DTD/sodipodi-0.dtd"
   xmlns:inkscape="http://www.inkscape.org/namespaces/inkscape"
   width="30.0mm"
   height="15.0mm"
   viewBox="0 0 30.0 15.0"
   version="1.1"
   id="svg8"
   sodipodi:docname="qw footprint v2.svg"
   inkscape:version="1.0 (4035a4fb49, 2020-05-01)">
  <defs
     id="defs2">
    <clipPath
       clipPathUnits="userSpaceOnUse"
       id="clipPath891">
      <path
         d="M 0,850.393 H 850.394 V 0 H 0 Z"
         id="path889" />
    </clipPath>
  </defs>
  <sodipodi:namedview
     id="base"
     pagecolor="#ffffff"
     bordercolor="#666666"
     borderopacity="1.0"
     inkscape:pageopacity="0.0"
     inkscape:pageshadow="2"
     inkscape:zoom="16"
     inkscape:cx="65.02789"
     inkscape:cy="29.013851"
     inkscape:document-units="mm"
     inkscape:current-layer="g854"
     inkscape:document-rotation="0"
     showgrid="true"
     inkscape:window-width="3440"
     inkscape:window-height="1369"
     inkscape:window-x="-8"
     inkscape:window-y="247"
     inkscape:window-maximized="1"
     borderlayer="true">
    <inkscape:grid
       spacingx="2.54"
       spacingy="2.54"
       empspacing="1"
       type="xygrid"
       units="mm"
       id="grid834" />
  </sodipodi:namedview>
  <metadata
     id="metadata5">
    <rdf:RDF>
      <cc:Work
         rdf:about="">
        <dc:format>image/svg+xml</dc:format>
        <dc:type
           rdf:resource="http://purl.org/dc/dcmitype/StillImage" />
        <dc:title />
      </cc:Work>
    </rdf:RDF>
  </metadata>
  <g
     inkscape:label="[fixed] BG"
     inkscape:groupmode="layer"
     sodipodi:insensitive="true"
     id="g840"
     style="display:inline">
    <rect
       x="0"
       y="0"
       width="30"
       height="15"
       style="fill:#ffffff;fill-opacity:1;stroke:none"
       id="rect838" />
  </g>
  <g
     inkscape:label="Edge.Cuts"
     inkscape:groupmode="layer"
     id="g842"
     style="display:inline" />
  <g
     inkscape:label="B.Cu"
     inkscape:groupmode="layer"
     id="g844"
     style="display:inline" />
  <g
     inkscape:label="B.Mask"
     inkscape:groupmode="layer"
     id="g846"
     style="display:inline" />
  <g
     inkscape:label="B.SilkS"
     inkscape:groupmode="layer"
     id="g848"
     style="display:inline" />
  <g
     inkscape:label="F.Cu"
     inkscape:groupmode="layer"
     id="g850"
     style="display:inline">
    <path
       id="path998"
       style="color:#000000;font-style:normal;font-variant:normal;font-weight:bold;font-stretch:normal;font-size:10.5833px;line-height:1.25;font-family:Comfortaa;-inkscape-font-specification:'Comfortaa Bold';font-variant-ligatures:normal;font-variant-position:normal;font-variant-caps:normal;font-variant-numeric:normal;font-variant-alternates:normal;font-variant-east-asian:normal;font-feature-settings:normal;font-variation-settings:normal;text-indent:0;text-align:start;text-decoration:none;text-decoration-line:none;text-decoration-style:solid;text-decoration-color:#000000;letter-spacing:-0.264583px;word-spacing:normal;text-transform:none;writing-mode:lr-tb;direction:ltr;text-orientation:mixed;dominant-baseline:auto;baseline-shift:baseline;text-anchor:start;white-space:normal;shape-padding:0;shape-margin:0;inline-size:0;clip-rule:nonzero;display:inline;overflow:visible;visibility:visible;isolation:auto;mix-blend-mode:normal;color-interpolation:sRGB;color-interpolation-filters:linearRGB;solid-color:#000000;solid-opacity:1;vector-effect:none;fill:#917c6f;fill-opacity:1;fill-rule:nonzero;stroke:none;stroke-width:0.255511;stroke-linecap:butt;stroke-linejoin:miter;stroke-miterlimit:4;stroke-dasharray:none;stroke-dashoffset:0;stroke-opacity:1;color-rendering:auto;image-rendering:auto;shape-rendering:auto;text-rendering:auto;enable-background:accumulate;stop-color:#000000"
       d="m 7.890968,2.806547 c -0.038644,0 -0.073845,0.00321 -0.1067007,0.00728 -6.095e-4,4.79e-5 -0.0011,8.115e-4 -0.00171,8.571e-4 C 7.5771884,2.8311094 7.3815245,2.885284 7.2051266,2.988881 7.0016441,3.1071485 6.836892,3.2719323 6.7159744,3.4778188 v 8.571e-4 L 6.7153316,3.479533 C 6.5963012,3.6878362 6.5370685,3.9236067 6.5370685,4.179087 c 0,0.253884 0.054011,0.4887954 0.1628365,0.6965543 v 8.57e-4 l 8.571e-4,6.429e-4 c 0.092884,0.1693808 0.2161424,0.3109442 0.3635966,0.423589 0.059575,0.074035 0.1264809,0.1410226 0.1999033,0.2001174 0.094008,0.1234029 0.2076631,0.2299743 0.3408851,0.31496 l 8.571e-4,8.57e-4 c 0.1936595,0.120202 0.4159179,0.1812623 0.6552025,0.1812628 0.1023789,0 0.1941549,-0.031587 0.2890347,-0.054208 v 0.2802502 c 0,0.092659 0.034693,0.1859629 0.1004872,0.2517537 0.042472,0.042279 0.1034557,0.050888 0.1602654,0.067277 0.015701,0.055566 0.022054,0.115898 0.063206,0.1570514 0.042632,0.042641 0.1039464,0.050831 0.1611224,0.067277 0.015718,0.055465 0.02212,0.1151094 0.063206,0.1561945 0.067969,0.067981 0.1641339,0.1054151 0.2607526,0.1054151 0.094033,0 0.1881687,-0.039877 0.2526107,-0.107772 0.064246,-0.065335 0.099797,-0.1570885 0.09963,-0.2493969 l -0.00321,-1.9484668 c 10e-5,0.00681 8.571e-4,0.00366 8.571e-4,-0.017783 v -1.094004 c 0,-0.1100007 -0.057525,-0.1957264 -0.1135569,-0.2517536 C 9.5546985,3.3188441 9.4968722,3.3084765 9.442628,3.2916283 9.4209975,3.2352796 9.4064277,3.171007 9.3714942,3.1360766 9.3306214,3.0951984 9.2734056,3.0842119 9.2191564,3.0672996 9.1976379,3.0109212 9.1829242,2.9470735 9.1478083,2.9119622 9.0808546,2.8450207 8.9860284,2.806547 8.8911267,2.806547 h -0.988803 z m 2.1087321,0.017141 c -0.1161765,0 -0.2393156,0.058465 -0.2873206,0.1651933 l -8.571e-4,6.428e-4 v 0.00171 c -0.039447,0.093697 -0.034497,0.1965832 -0.00643,0.3053183 l 0.0015,0.00471 0.6648446,1.9962464 8.57e-4,8.571e-4 c 0.02354,0.065897 0.06768,0.1235101 0.122984,0.1660503 l 0.0041,0.00321 0.0049,0.00321 c 0.02553,0.01642 0.05601,0.017648 0.0842,0.027425 l 0.0073,0.022711 8.57e-4,0.00171 c 0.0235,0.065781 0.06769,0.1233508 0.123199,0.1660503 l 0.0041,0.00321 0.0047,0.00236 c 0.0257,0.016529 0.05594,0.017706 0.0842,0.027425 l 0.0073,0.023568 8.57e-4,0.00171 c 0.02354,0.065912 0.0679,0.1232983 0.123199,0.1658361 l 0.0041,0.00343 0.0047,0.00236 c 0.06047,0.038887 0.131549,0.060635 0.203331,0.060635 0.07336,0 0.147122,-0.021239 0.207403,-0.062992 h 6.43e-4 l 8.57e-4,-8.569e-4 c 0.06015,-0.042957 0.108284,-0.1047916 0.128769,-0.176549 L 11.6624,5.1451583 11.70139,5.2893542 v 8.571e-4 c 0.02059,0.072082 0.06963,0.1336981 0.129627,0.176549 l 0.0024,0.0015 0.0024,0.00257 c 0.02569,0.016527 0.05657,0.016949 0.08506,0.026782 l 0.0041,0.016069 8.57e-4,8.571e-4 c 0.02056,0.071984 0.06942,0.1335501 0.129626,0.176549 l 0.0024,0.0015 0.0026,0.00171 c 0.02589,0.016653 0.05624,0.017642 0.08485,0.027425 l 0.0041,0.016284 8.57e-4,8.571e-4 c 0.02059,0.072082 0.06877,0.1336976 0.12877,0.176549 l 0.0032,0.0015 0.0026,0.00171 c 0.06046,0.038891 0.131332,0.060635 0.203117,0.060635 0.07336,0 0.147121,-0.021243 0.207402,-0.062992 l 0.0024,-0.00171 0.0026,-0.00171 c 0.0566,-0.043532 0.101695,-0.1046589 0.121485,-0.1739778 L 13.482614,3.755691 c 0.0392,-0.1113464 0.04862,-0.225834 -0.0028,-0.3248159 -0.03795,-0.075003 -0.12682,-0.095821 -0.208902,-0.1174136 -0.0042,-0.036236 0.0024,-0.072665 -0.01543,-0.1069151 -0.0382,-0.074929 -0.126837,-0.096003 -0.208902,-0.1174136 -0.0043,-0.035855 0.002,-0.072363 -0.01543,-0.106058 -0.05163,-0.1012918 -0.169865,-0.1594083 -0.283464,-0.1594083 -0.08261,0 -0.166429,0.02848 -0.228399,0.083347 -0.06152,0.054467 -0.100574,0.1278789 -0.126199,0.2112589 v 8.569e-4 c -1.15e-4,3.763e-4 -7.32e-4,4.798e-4 -8.57e-4,8.571e-4 l -0.171621,0.5384316 -0.03,-0.1182707 v -6.428e-4 c -0.0173,-0.072967 -0.06046,-0.1392396 -0.119128,-0.1864048 -0.03034,-0.026749 -0.071,-0.029184 -0.108414,-0.041995 -0.01809,-0.070797 -0.05878,-0.1364096 -0.115914,-0.182334 -0.02988,-0.026344 -0.07001,-0.027702 -0.106701,-0.040495 -0.01788,-0.071538 -0.05997,-0.1374568 -0.117414,-0.1836195 -0.06146,-0.053945 -0.142986,-0.08099 -0.224328,-0.08099 -0.0846,0 -0.169528,0.024707 -0.232471,0.081632 -0.05473,0.046766 -0.09374,0.1101834 -0.1142,0.1797629 l -0.194332,0.6543455 -0.05506,-0.1724781 c -0.0278,-0.086869 -0.06812,-0.1604848 -0.134555,-0.2138299 -0.03117,-0.027493 -0.07233,-0.0317 -0.110772,-0.044566 -0.02668,-0.069806 -0.05722,-0.1355409 -0.113342,-0.1804057 -0.03122,-0.02732 -0.07261,-0.031831 -0.110986,-0.044566 -0.02666,-0.06952 -0.0574,-0.1350421 -0.113343,-0.1797628 -0.05996,-0.052547 -0.140109,-0.080133 -0.219615,-0.080133 z M 9.1328103,3.1602878 c 0.058001,0.00376 0.1077534,0.025259 0.1484811,0.065992 0.041857,0.041853 0.076062,0.095584 0.076062,0.1613367 v 1.0937896 c 0,0.00614 -0.0012,0.011898 -0.00129,0.017998 l 0.00343,1.948681 c 1.185e-4,0.065762 -0.020925,0.1194829 -0.062778,0.1613367 -0.041845,0.044836 -0.095579,0.067277 -0.1613367,0.067277 -0.068739,0 -0.1257185,-0.022437 -0.1705497,-0.067277 -0.041011,-0.041012 -0.061306,-0.093721 -0.062135,-0.1576942 0.00292,8.27e-5 0.00541,8.57e-4 0.00836,8.57e-4 0.065757,0 0.119492,-0.022444 0.1613366,-0.067277 0.041852,-0.041853 0.063108,-0.095789 0.062992,-0.161551 L 9.1319532,4.275289 c 8.29e-5,-0.0061 0.00107,-0.011856 0.00107,-0.017998 V 3.1635017 c 0,-0.00112 -1.948e-4,-0.0021 -2.142e-4,-0.00321 z m 3.8388697,0.014998 c 0.08369,0 0.140662,0.029785 0.17055,0.08956 0.02989,0.056787 0.02838,0.1314588 -0.0045,0.2241144 L 12.474172,5.479636 c -0.01195,0.041844 -0.03741,0.077671 -0.07628,0.1075578 -0.03886,0.026914 -0.08375,0.040495 -0.134554,0.040495 -0.04782,0 -0.09271,-0.013581 -0.134554,-0.040495 -0.04185,-0.029887 -0.06861,-0.065713 -0.08056,-0.1075578 l -0.02078,-0.077133 c 0.004,1.95e-4 0.0078,8.571e-4 0.01178,8.571e-4 0.05081,0 0.0957,-0.013367 0.134554,-0.040281 0.03886,-0.029888 0.06433,-0.065713 0.07628,-0.1075577 l 0.663344,-1.9906758 c 0.01107,-0.031181 0.01727,-0.059656 0.02121,-0.086775 0.01196,-0.00177 0.02419,-0.00279 0.03707,-0.00279 z m -1.339759,8.57e-4 c 0.05513,0.00175 0.100071,0.017403 0.133912,0.048423 0.03886,0.029888 0.06411,0.070245 0.07606,0.121056 l 0.273179,1.0640077 -0.09234,0.2896775 z m -1.393537,2.143e-4 c 0.04982,0.00274 0.0917,0.018353 0.12427,0.048208 0.03885,0.029888 0.07015,0.082115 0.09406,0.1568371 l 0.332529,1.0397966 -0.07328,0.2476827 z M 7.9023237,3.3366225 c 0.1524292,0 0.2881833,0.03734 0.407734,0.1120573 0.098918,0.05935 0.179867,0.1393383 0.2440404,0.2376126 -0.00672,-0.00432 -0.012821,-0.00936 -0.019712,-0.013498 C 8.4148353,3.598077 8.2790811,3.5607369 8.1266524,3.5607369 c -0.1494407,0 -0.2854052,0.03734 -0.4079482,0.1120572 C 7.599152,3.7445246 7.50333,3.8448793 7.4315978,3.9733988 7.3628551,4.0989291 7.3283252,4.2424474 7.3283252,4.4038441 c 0,0.1584052 0.03453,0.3017101 0.1032726,0.4302311 0.011771,0.020598 0.025077,0.039478 0.038138,0.058707 C 7.3619966,4.8200541 7.2740428,4.7264383 7.2074834,4.6099608 7.1387406,4.4814412 7.1042108,4.3379221 7.1042108,4.1795155 c 0,-0.1613965 0.03453,-0.3049165 0.1032726,-0.4304453 C 7.2792155,3.6205492 7.3748233,3.5204095 7.4943756,3.4486798 7.6169185,3.3739623 7.7528831,3.3366225 7.9023237,3.3366225 Z m 3.4819153,0.2918201 0.140339,0.5193626 -0.377524,1.3318308 c -0.01195,0.041844 -0.03892,0.077671 -0.08078,0.1075578 -0.03885,0.026914 -0.08353,0.040495 -0.13434,0.040495 -0.04782,0 -0.09271,-0.013581 -0.134554,-0.040495 C 10.75853,5.5573068 10.73155,5.5214808 10.7166,5.479636 L 10.69089,5.402289 c 0.0057,3.898e-4 0.01118,0.00107 0.01693,0.00107 0.05081,0 0.09549,-0.013367 0.134341,-0.040281 0.04185,-0.029888 0.06883,-0.065713 0.08078,-0.1075577 z m -3.0332579,0.284321 c 0.063986,0 0.1191253,0.015886 0.1750491,0.031496 0.022344,0.072877 0.041995,0.1467906 0.041995,0.2348273 0,0.1394161 -0.029488,0.2605393 -0.087417,0.3693816 -0.058604,0.107015 -0.1359392,0.1891106 -0.2371841,0.2526107 -3.346e-4,2.098e-4 -4.839e-4,6.498e-4 -8.571e-4,8.571e-4 -0.098645,0.058813 -0.2084806,0.088275 -0.3402425,0.088274 -0.065277,0 -0.1228909,-0.017025 -0.1812627,-0.03321 -0.021355,-0.072123 -0.040495,-0.1451302 -0.040495,-0.2292566 0,-0.1433238 0.029793,-0.2639405 0.087417,-0.3691673 0.061844,-0.1103788 0.1403779,-0.1919573 0.2403981,-0.251968 l 8.57e-4,-6.428e-4 c 0.1028135,-0.062688 0.2135759,-0.093202 0.3417424,-0.093203 z m 0.3269583,1.1062167 v 0.4261601 c -0.048065,0.033906 -0.098181,0.065588 -0.152552,0.092774 C 8.3759459,5.6096487 8.213219,5.6454721 8.036878,5.6454721 7.8186942,5.6454721 7.6227336,5.591734 7.4493813,5.4841355 7.3292601,5.4075087 7.2275887,5.3116458 7.1419203,5.1991717 c 0.027221,0.020795 0.054079,0.041965 0.083347,0.060635 0.1733523,0.1075975 0.3693127,0.1617651 0.5874968,0.1617651 0.1763409,1e-7 0.3390683,-0.036038 0.4885093,-0.1077719 0.1347621,-0.067382 0.2490585,-0.1565585 0.3449562,-0.2652521 3.397e-4,-3.049e-4 7.317e-4,-5.521e-4 0.00107,-8.57e-4 l -2.143e-4,-2.143e-4 c 0.00135,-0.00151 0.00271,-0.00301 0.00407,-0.0045 l 4.285e-4,4.284e-4 c 0.0089,-0.00803 0.017901,-0.015951 0.026354,-0.024425 z" />
  </g>
  <g
     inkscape:label="F.Mask"
     inkscape:groupmode="layer"
     id="g852"
     style="display:inline">
    <path
       id="path855-0"
       style="font-style:normal;font-variant:normal;font-weight:bold;font-stretch:normal;font-size:10.5833px;line-height:1.25;font-family:Comfortaa;-inkscape-font-specification:'Comfortaa Bold';letter-spacing:-0.264583px;display:inline;fill:#44bba4;fill-opacity:1;stroke-width:0.112081"
       d="m 9.3569246,3.3844022 c 1.74e-5,0.00105 4.286e-4,0.00194 4.286e-4,0.003 v 1.0940039 c 0,0.00614 -0.0012,0.011898 -0.00129,0.017998 l 0.00343,1.948681 c 1.16e-4,0.065762 -0.020924,0.1194829 -0.062778,0.1613367 -0.041845,0.044835 -0.095579,0.067277 -0.1613367,0.067277 -0.00303,0 -0.00581,-7.742e-4 -0.00878,-8.571e-4 8.292e-4,0.06398 0.021335,0.1166797 0.062349,0.1576942 0.044831,0.04484 0.1018099,0.067277 0.1705499,0.067277 0.065758,0 0.1194919,-0.022442 0.1613366,-0.067277 0.041853,-0.041853 0.062896,-0.09579 0.062778,-0.1615508 L 9.580182,4.7235178 c 8.3e-5,-0.0061 0.00129,-0.011641 0.00129,-0.017783 V 3.6117305 C 9.581472,3.5459775 9.547267,3.492247 9.50541,3.4503938 9.4646864,3.4096623 9.4149232,3.388159 9.3569246,3.3844022 Z M 8.1266524,3.5607369 c -0.1494407,0 -0.2854052,0.03734 -0.4079482,0.1120572 C 7.599152,3.7445245 7.50333,3.8448793 7.4315978,3.9733988 7.3628553,4.0989291 7.3283252,4.2424474 7.3283252,4.4038441 c 0,0.1584052 0.03453,0.3017101 0.1032726,0.4302311 0.00701,0.012266 0.014963,0.023445 0.022711,0.034924 0.015142,0.010916 0.029622,0.022558 0.045637,0.032567 0.035195,0.020602 0.071882,0.037258 0.1092719,0.051851 -0.03729,-0.1004764 -0.056564,-0.2087706 -0.056564,-0.3254585 0,-0.1613967 0.034101,-0.3049159 0.102844,-0.4304455 C 7.72723,4.0689937 7.8230523,3.9686383 7.9426043,3.8969085 8.065147,3.8221909 8.2013268,3.7848514 8.3507667,3.7848514 c 0.09664,0 0.185586,0.016974 0.2688944,0.047137 -0.010984,-0.026562 -0.022455,-0.052872 -0.03621,-0.07799 C 8.567964,3.7250433 8.5507361,3.6979443 8.5326723,3.6719371 8.4135225,3.5979009 8.2783855,3.5607369 8.1266524,3.5607369 Z M 7.3662489,5.4232861 c 0.085657,0.1124412 0.1873659,0.208352 0.3074609,0.2849638 0.1733526,0.1075977 0.3690987,0.1615504 0.5872826,0.1615509 0.1449398,0 0.2799133,-0.026211 0.4066626,-0.074776 V 5.4515682 C 8.6227495,5.483036 8.5760378,5.5125889 8.5253874,5.5379143 8.3759459,5.6096485 8.213219,5.6454721 8.036878,5.6454721 c -0.2181837,0 -0.4141443,-0.053738 -0.5874967,-0.1613366 -0.029264,-0.018668 -0.055915,-0.040058 -0.083132,-0.060849 z" />
    <path
       id="path865-6"
       style="font-style:normal;font-variant:normal;font-weight:bold;font-stretch:normal;font-size:10.5833px;line-height:1.25;font-family:Comfortaa;-inkscape-font-specification:'Comfortaa Bold';letter-spacing:-0.264583px;display:inline;fill:#44bba4;fill-opacity:1;stroke-width:0.112081"
       d="m 13.196008,3.3994003 c -0.01289,0 -0.02532,0.00102 -0.03728,0.00279 -0.0039,0.02717 -0.0099,0.055524 -0.021,0.086775 L 12.474172,5.479636 c -0.01195,0.041844 -0.03742,0.077671 -0.07628,0.1075578 -0.03886,0.026914 -0.08375,0.040495 -0.134554,0.040495 -0.004,0 -0.0076,-8.806e-4 -0.01157,-0.00107 l 0.02057,0.077133 c 0.01195,0.041845 0.03893,0.077671 0.08078,0.1075578 0.04184,0.026913 0.08673,0.040495 0.134555,0.040495 0.05081,-4e-7 0.0957,-0.013582 0.134554,-0.040495 0.03886,-0.029887 0.06412,-0.065713 0.07606,-0.1075578 L 13.361844,3.713289 c 0.03288,-0.092656 0.03439,-0.1675421 0.0045,-0.2243287 -0.02989,-0.059775 -0.08665,-0.08956 -0.170336,-0.08956 z m -1.339972,6.427e-4 0.254325,0.9913742 0.09234,-0.2896776 -0.136697,-0.5320038 c -0.01195,-0.050812 -0.03721,-0.091168 -0.07606,-0.121056 -0.03388,-0.031056 -0.0787,-0.046918 -0.133911,-0.048637 z m -1.393323,4.285e-4 0.320745,1.0027298 0.07328,-0.2472543 -0.175906,-0.55043 c -0.02391,-0.074723 -0.05521,-0.1269493 -0.09406,-0.1568372 -0.03254,-0.029831 -0.07428,-0.045446 -0.124055,-0.048208 z m 1.056294,0.7670455 -0.371953,1.312119 c -0.01195,0.041844 -0.03892,0.077671 -0.08078,0.1075578 -0.03885,0.026914 -0.08353,0.040495 -0.13434,0.040495 -0.0057,0 -0.01132,-9.042e-4 -0.01693,-0.00129 l 0.02593,0.077347 c 0.01494,0.041845 0.04192,0.07767 0.08078,0.1075578 0.04185,0.026913 0.08652,0.040495 0.13434,0.040495 0.05081,0 0.0957,-0.013582 0.134555,-0.040495 0.04185,-0.029887 0.06861,-0.065713 0.08056,-0.1075578 l 0.288392,-1.0166565 z" />
  </g>
  <g
     inkscape:label="F.SilkS"
     inkscape:groupmode="layer"
     id="g854"
     style="display:inline">
    <path
       id="path1511"
       style="font-style:normal;font-variant:normal;font-weight:bold;font-stretch:normal;font-size:10.5833px;line-height:1.25;font-family:Comfortaa;-inkscape-font-specification:'Comfortaa Bold';letter-spacing:-0.264583px;display:inline;fill:#d4aa00;stroke-width:0.11208"
       d="m 7.8912397,2.9346385 c -0.033501,0 -0.065639,0.00297 -0.096976,0.007 C 7.6040261,2.9566321 7.4286777,3.0059539 7.270196,3.0990289 7.08489,3.2066275 6.9368367,3.3546812 6.8262506,3.5429765 6.7186529,3.7312726 6.6649145,3.9434442 6.6649145,4.1795622 c 0,0.236118 0.049352,0.4482888 0.147983,0.6365857 0.1016192,0.1853047 0.239071,0.3331416 0.4124223,0.4437262 0.1733525,0.1075974 0.369148,0.1615526 0.587332,0.1615526 0.1763407,0 0.3391606,-0.035965 0.4886017,-0.107699 0.1494416,-0.074722 0.275119,-0.1748166 0.3767396,-0.3003461 v 1.2103443 c 0,0.065761 0.020756,0.1197049 0.06261,0.1615578 0.044831,0.044839 0.101786,0.067202 0.1705255,0.067202 0.065757,0 0.1194926,-0.022368 0.1613373,-0.067202 0.041853,-0.041853 0.062945,-0.095796 0.062826,-0.1615578 l -0.0034,-1.9485085 c 8.29e-5,-0.0061 0.00129,-0.011819 0.00129,-0.017961 V 3.1633718 c 0,-0.065754 -0.034102,-0.1194846 -0.075958,-0.1613379 -0.044834,-0.044839 -0.1001794,-0.067422 -0.165937,-0.067422 H 7.9026964 Z m 0.011162,0.4019155 c 0.152429,0 0.2882732,0.037364 0.4078238,0.1120809 0.1195511,0.07173 0.2138686,0.1720409 0.2826127,0.3005619 0.068739,0.1255287 0.1031033,0.2689771 0.1031033,0.4303737 0,0.1584067 -0.034355,0.301855 -0.1031033,0.4303745 C 8.524094,4.7354745 8.4297769,4.8355659 8.3102258,4.9102865 8.1906752,4.9820051 8.0548306,5.0177704 7.9024019,5.0177704 7.7529612,5.0177704 7.6168991,4.9820177 7.4943561,4.9102865 7.374804,4.8355659 7.2791002,4.7354745 7.207368,4.609945 7.1386254,4.4814255 7.1042628,4.3379772 7.1042628,4.1795705 c 0,-0.1613966 0.034363,-0.304845 0.1031052,-0.4303737 C 7.2791002,3.6206758 7.374804,3.5203647 7.4943561,3.4486349 7.6168991,3.3739173 7.7529612,3.336554 7.9024017,3.336554 Z" />
    <path
       d="m 10.707737,5.4034161 q -0.07173,0 -0.134497,-0.04037 -0.05828,-0.044832 -0.0807,-0.1075986 L 9.8290229,3.2648959 q -0.035881,-0.1389834 0,-0.2241633 0.04033,-0.089662 0.1703651,-0.089662 0.08518,0 0.138978,0.049313 0.05828,0.04483 0.09415,0.1569151 l 0.564888,1.7663917 H 10.64049 L 11.173992,3.12143 q 0.02241,-0.076216 0.07622,-0.1210464 0.0538,-0.049313 0.147947,-0.049313 0.08966,0 0.143461,0.049313 0.05828,0.04483 0.07622,0.1210464 l 0.434873,1.6946618 h -0.06725 l 0.52902,-1.6587931 q 0.06277,-0.2062278 0.233128,-0.2062278 0.125529,0 0.17036,0.089662 0.04484,0.08518 -0.0045,0.2241633 l -0.663518,1.9905513 q -0.01792,0.062767 -0.07621,0.1075985 -0.05828,0.04037 -0.134498,0.04037 -0.07173,0 -0.134497,-0.04037 -0.06277,-0.044832 -0.0807,-0.1075985 l -0.46177,-1.7081116 h 0.04484 l -0.48419,1.7081113 q -0.01792,0.062767 -0.0807,0.1075985 -0.05828,0.04037 -0.134497,0.04037 z"
       style="font-style:normal;font-variant:normal;font-weight:bold;font-stretch:normal;font-size:10.5833px;line-height:1.25;font-family:Comfortaa;-inkscape-font-specification:'Comfortaa Bold';letter-spacing:-0.264583px;display:inline;fill:#d4aa00;stroke-width:0.11208"
       id="path1513" />
  </g>
  <g
     inkscape:label="Dwgs.User"
     inkscape:groupmode="layer"
     id="g856"
     style="display:inline">
    <path
       id="path1507"
       style="font-style:normal;font-variant:normal;font-weight:bold;font-stretch:normal;font-size:10.5833px;line-height:1.25;font-family:Comfortaa;-inkscape-font-specification:'Comfortaa Bold';letter-spacing:-0.264583px;display:inline;stroke-width:0.112081"
       d="m 9.1328103,3.1602878 c 1.94e-5,0.00111 2.194e-4,0.0021 2.194e-4,0.00321 v 1.0937896 c 0,0.00614 -9.873e-4,0.011898 -0.00108,0.017998 l 0.00343,1.9484667 c 1.206e-4,0.065762 -0.02114,0.1196975 -0.062992,0.161551 -0.041845,0.044833 -0.095579,0.067277 -0.1613366,0.067277 -0.00294,0 -0.00544,-7.789e-4 -0.00836,-8.557e-4 8.338e-4,0.063973 0.021125,0.1166826 0.062135,0.1576943 0.044831,0.04484 0.1018106,0.067277 0.1705497,0.067277 0.065758,0 0.119492,-0.022441 0.1613366,-0.067277 0.041853,-0.041854 0.062896,-0.095575 0.062778,-0.1613368 l -0.00343,-1.948681 c 8.29e-5,-0.0061 0.00129,-0.011856 0.00129,-0.017998 V 3.3876177 c 0,-0.065753 -0.034205,-0.1194834 -0.076062,-0.1613366 -0.040728,-0.040732 -0.09048,-0.062236 -0.148481,-0.065992 z m 3.8388697,0.014998 c -0.01288,0 -0.02511,0.00102 -0.03707,0.00279 -0.0039,0.027119 -0.01015,0.055594 -0.02121,0.086775 l -0.663344,1.9906758 c -0.01195,0.041844 -0.03741,0.07767 -0.07628,0.1075577 -0.03886,0.026914 -0.08375,0.040281 -0.134554,0.040281 -0.004,0 -0.0078,-6.582e-4 -0.01178,-8.557e-4 l 0.02078,0.077133 c 0.01195,0.041844 0.03871,0.077671 0.08056,0.1075578 0.04184,0.026914 0.08673,0.040495 0.134554,0.040495 0.05081,0 0.0957,-0.013581 0.134554,-0.040495 0.03886,-0.029887 0.06433,-0.065713 0.07628,-0.1075578 l 0.66356,-1.9906809 c 0.03288,-0.092656 0.03439,-0.1673273 0.0045,-0.2241145 -0.02989,-0.059775 -0.08686,-0.08956 -0.17055,-0.08956 z m -1.339759,8.557e-4 0.390808,1.5231637 0.09234,-0.2896775 L 11.841895,3.34562 c -0.01195,-0.050809 -0.03721,-0.091167 -0.07606,-0.1210546 -0.03384,-0.03102 -0.07878,-0.046671 -0.133912,-0.048423 z m -1.393537,2.194e-4 0.477582,1.4925246 0.07328,-0.2476828 -0.332529,-1.0397965 c -0.02391,-0.074726 -0.05521,-0.126953 -0.09406,-0.1568409 -0.03257,-0.029855 -0.07445,-0.045465 -0.12427,-0.048208 z M 7.9023237,3.3366263 c -0.1494406,0 -0.2854052,0.03734 -0.4079481,0.1120572 -0.1195523,0.07173 -0.2151601,0.1718694 -0.2868922,0.3003904 -0.068743,0.1255288 -0.1032726,0.2690488 -0.1032726,0.4304453 0,0.1584067 0.03453,0.3019258 0.1032726,0.4304453 C 7.2740428,4.726442 7.3619966,4.8200578 7.4697358,4.8927857 7.4566747,4.873557 7.4433685,4.8546773 7.4315978,4.8340789 7.3628553,4.705558 7.3283252,4.562253 7.3283252,4.4038479 c 0,-0.1613968 0.03453,-0.3049151 0.1032726,-0.4304453 C 7.50333,3.844883 7.599152,3.7445284 7.7187042,3.6727978 7.8412472,3.5980809 7.9772117,3.5607407 8.1266524,3.5607407 c 0.1524287,0 0.2881828,0.03734 0.4077338,0.1120571 0.00689,0.00413 0.012991,0.00918 0.019712,0.013498 C 8.4899247,3.5880181 8.4089762,3.5080301 8.3100577,3.4486798 8.190507,3.3739621 8.0547529,3.3366225 7.9023237,3.3366225 Z M 11.384239,3.6284426 10.92294,5.2555217 c -0.01195,0.041844 -0.03892,0.07767 -0.08078,0.1075577 -0.03885,0.026914 -0.08353,0.040281 -0.134341,0.040281 -0.0058,0 -0.01126,-6.801e-4 -0.01693,-0.00108 l 0.02571,0.077347 c 0.01495,0.041845 0.04192,0.077671 0.08078,0.1075578 0.04184,0.026914 0.08673,0.040495 0.134554,0.040495 0.05081,0 0.09549,-0.013581 0.13434,-0.040495 0.04185,-0.029887 0.06883,-0.065713 0.08078,-0.1075578 L 11.524578,4.1478052 Z M 8.6779394,5.0189803 c -0.0102,0.010225 -0.020947,0.019904 -0.03171,0.029568 C 8.5503315,5.1572415 8.4360351,5.2464182 8.301273,5.3138 8.1518319,5.3855339 7.9891047,5.421572 7.8127637,5.4215719 c -0.2181841,0 -0.4141445,-0.054168 -0.5874968,-0.1617651 -0.029267,-0.01867 -0.056126,-0.03984 -0.083347,-0.060635 0.085668,0.1124741 0.1873398,0.208337 0.307461,0.2849638 0.1733524,0.1075985 0.3693129,0.1613366 0.5874967,0.1613366 0.176341,0 0.3390679,-0.035823 0.4885094,-0.1075578 0.054371,-0.027185 0.1044865,-0.058868 0.152552,-0.092774 z" />
  </g>
  <g
     inkscape:label="Drill"
     inkscape:groupmode="layer"
     id="g858"
     style="display:none" />
</svg>
